<?xml version="1.0" encoding="utf-8"?>
<!-- Generator: Adobe Illustrator 17.0.0, SVG Export Plug-In . SVG Version: 6.00 Build 0)  -->
<!DOCTYPE svg PUBLIC "-//W3C//DTD SVG 1.1 Tiny//EN" "http://www.w3.org/Graphics/SVG/1.1/DTD/svg11-tiny.dtd">
<svg version="1.1" baseProfile="tiny" id="Layer_1" xmlns="http://www.w3.org/2000/svg" xmlns:xlink="http://www.w3.org/1999/xlink"
	 x="0px" y="0px" width="174px" height="50px" viewBox="0 0 174 50" xml:space="preserve">
<g>
	<rect y="24" fill="#344F85" width="24" height="24"/>
	<path fill="#FFFFFF" d="M15.618,33.152H17v-2.771h-2.388c-2.458,0-3.872,2.48-3.845,4.154v1.385H8v2.771h2.768V47h3.465v-8.31H17
		v-2.77h-2.768v-1.416C14.232,33.958,14.687,33.128,15.618,33.152z"/>
</g>
<rect x="25" fill="#69C3E9" width="24" height="24"/>
<path fill="#FFFFFF" d="M45.338,7.501c-0.585,0.262-1.223,0.438-1.887,0.518c0.678-0.407,1.2-1.051,1.444-1.817
	c-0.633,0.375-1.336,0.649-2.082,0.797c-0.6-0.638-1.451-1.037-2.396-1.037c-1.813,0-3.283,1.47-3.283,3.282
	c0,0.257,0.029,0.506,0.087,0.747c-2.732-0.134-5.146-1.443-6.767-3.43c-0.282,0.487-0.444,1.05-0.444,1.652
	c0,1.138,0.584,2.143,1.461,2.732c-0.537-0.019-1.045-0.167-1.486-0.413c0,0.015,0,0.027,0,0.042c0,1.589,1.131,2.917,2.632,3.217
	c-0.271,0.076-0.565,0.114-0.863,0.114c-0.211,0-0.419-0.021-0.617-0.059c0.416,1.304,1.626,2.253,3.066,2.28
	c-1.123,0.881-2.541,1.406-4.076,1.406c-0.266,0-0.525-0.018-0.784-0.047c1.455,0.931,3.182,1.475,5.031,1.475
	c6.037,0,9.338-5.002,9.338-9.337c0-0.145-0.006-0.287-0.012-0.427C44.34,8.738,44.898,8.159,45.338,7.501z"/>
<rect x="100" fill="#6D97B3" width="24" height="24"/>
<g>
	<path fill="#DEE8F0" d="M106.798,5.332h10.404c0.989,0,1.798,0.809,1.798,1.796v10.407c0,0.988-0.809,1.797-1.798,1.797h-10.404
		c-0.989,0-1.798-0.809-1.798-1.797V7.128C105,6.14,105.809,5.332,106.798,5.332L106.798,5.332z M115.198,6.887
		c-0.347,0-0.631,0.284-0.631,0.63v1.509c0,0.346,0.284,0.629,0.631,0.629h1.582c0.348,0,0.63-0.283,0.63-0.629V7.517
		c0-0.347-0.282-0.63-0.63-0.63H115.198L115.198,6.887z M117.419,11.252h-1.233c0.115,0.38,0.181,0.784,0.181,1.201
		c0,2.329-1.95,4.216-4.354,4.216c-2.401,0-4.352-1.887-4.352-4.216c0-0.417,0.064-0.821,0.18-1.201h-1.286v5.914
		c0,0.306,0.251,0.557,0.558,0.557h9.748c0.307,0,0.559-0.251,0.559-0.557L117.419,11.252L117.419,11.252z M112.013,9.577
		c-1.552,0-2.811,1.22-2.811,2.724c0,1.505,1.259,2.725,2.811,2.725c1.553,0,2.812-1.22,2.812-2.725
		C114.824,10.797,113.565,9.577,112.013,9.577z"/>
</g>
<g>
	<rect x="50" fill="#D25C60" width="24" height="24"/>
</g>
<path id="Triangle_2_" fill="#D25C60" d="M60.346,14.529l4.323-2.189l-4.323-2.206V14.529z"/>
<g id="Lozenge_4_">
	<g>
		<path fill="#FFFFFF" d="M69.84,9.373c0,0-0.156-1.078-0.636-1.552c-0.609-0.623-1.292-0.626-1.604-0.663
			C65.36,7,62.002,7,62.002,7h-0.006c0,0-3.358,0-5.599,0.158c-0.312,0.036-0.994,0.04-1.602,0.663
			c-0.481,0.474-0.638,1.552-0.638,1.552S54,10.639,54,11.904v1.188c0,1.266,0.158,2.531,0.158,2.531s0.156,1.076,0.638,1.551
			c0.607,0.623,1.406,0.604,1.763,0.669C57.84,17.963,62,18,62,18s3.36-0.006,5.601-0.162c0.312-0.038,0.994-0.041,1.604-0.664
			c0.479-0.475,0.636-1.551,0.636-1.551S70,14.357,70,13.092v-1.188C70,10.639,69.84,9.373,69.84,9.373z M60.348,14.529
			l-0.002-4.395l4.323,2.206L60.348,14.529z"/>
	</g>
</g>
<rect x="125" fill="#FA8357" width="24" height="24"/>
<path fill="#FFFFFF" d="M127.476,13.51c-0.04,0-0.073,0.031-0.079,0.078l-0.146,1.111l0.146,1.091
	c0.006,0.046,0.039,0.079,0.079,0.079c0.041,0,0.074-0.033,0.08-0.078l0,0V15.79c0,0,0,0,0,0.001l0.173-1.092l-0.173-1.111
	C127.551,13.541,127.517,13.51,127.476,13.51z M128.298,12.903c-0.006-0.048-0.041-0.081-0.081-0.081
	c-0.042,0-0.078,0.035-0.083,0.081l-0.198,1.796l0.198,1.756c0.005,0.047,0.041,0.082,0.083,0.082c0.04,0,0.075-0.034,0.081-0.082
	l0.226-1.756L128.298,12.903z M131.398,11.247c-0.081,0-0.148,0.065-0.153,0.149l-0.157,3.306l0.157,2.135
	c0.005,0.084,0.072,0.149,0.153,0.149c0.079,0,0.145-0.065,0.149-0.149l0,0l0.179-2.135l-0.179-3.306
	C131.543,11.312,131.478,11.247,131.398,11.247z M129.795,12.395c-0.063,0-0.113,0.049-0.118,0.115l-0.177,2.189l0.177,2.119
	c0.005,0.064,0.055,0.114,0.118,0.114c0.061,0,0.11-0.05,0.116-0.114l0.2-2.119l-0.2-2.19
	C129.905,12.444,129.855,12.395,129.795,12.395z M133.026,16.984c0.1,0,0.182-0.08,0.187-0.184l0.153-2.1l-0.153-4.399
	c-0.005-0.103-0.086-0.184-0.186-0.184c-0.102,0-0.183,0.081-0.186,0.184l-0.136,4.399l0.136,2.101
	C132.845,16.904,132.926,16.984,133.026,16.984z M136.361,16.995c0.139,0,0.254-0.114,0.255-0.253v0.002v-0.002l0.107-2.039
	l-0.107-5.082c-0.001-0.139-0.116-0.253-0.255-0.253c-0.137,0-0.251,0.113-0.253,0.253l-0.096,5.08c0,0.003,0.096,2.043,0.096,2.043
	C136.11,16.881,136.225,16.995,136.361,16.995z M134.682,16.987c0.119,0,0.216-0.097,0.22-0.22v0.002l0.132-2.067l-0.132-4.432
	c-0.004-0.122-0.101-0.218-0.22-0.218c-0.12,0-0.216,0.096-0.22,0.218l-0.115,4.432l0.116,2.067
	C134.466,16.891,134.563,16.987,134.682,16.987z M130.593,16.968c0.07,0,0.127-0.058,0.134-0.132l0.188-2.137l-0.188-2.032
	c-0.006-0.075-0.063-0.132-0.134-0.132s-0.13,0.058-0.135,0.133l-0.167,2.031l0.167,2.136
	C130.463,16.91,130.521,16.968,130.593,16.968z M129.001,16.851c0.053,0,0.095-0.041,0.101-0.098l0.212-2.054l-0.212-2.132
	c-0.006-0.057-0.048-0.098-0.101-0.098c-0.052,0-0.095,0.042-0.1,0.098l-0.188,2.132l0.188,2.053
	C128.906,16.809,128.948,16.851,129.001,16.851z M135.52,10.196c-0.131,0-0.234,0.104-0.237,0.236l-0.106,4.27l0.106,2.055
	c0.003,0.131,0.105,0.233,0.237,0.233c0.13,0,0.234-0.102,0.236-0.235v0.002l0.117-2.054l-0.117-4.271
	C135.754,10.3,135.649,10.196,135.52,10.196z M132.209,16.988c0.09,0,0.165-0.072,0.168-0.166l0.166-2.121l-0.166-4.061
	c-0.004-0.094-0.078-0.167-0.168-0.167s-0.164,0.073-0.168,0.167l-0.147,4.061l0.147,2.121
	C132.045,16.916,132.119,16.988,132.209,16.988z M134.054,16.789v-0.002l0.142-2.085l-0.142-4.549
	c-0.003-0.112-0.094-0.201-0.203-0.201s-0.199,0.088-0.203,0.201l-0.125,4.548l0.126,2.088c0.003,0.111,0.093,0.199,0.202,0.199
	S134.051,16.9,134.054,16.789L134.054,16.789z M144.79,12.08c-0.337,0-0.658,0.068-0.95,0.191c-0.196-2.217-2.056-3.956-4.324-3.956
	c-0.556,0-1.096,0.109-1.572,0.294c-0.187,0.071-0.234,0.146-0.237,0.289v7.807c0.003,0.151,0.12,0.276,0.265,0.292
	c0.007,0.001,6.774,0.003,6.819,0.003c1.357,0,2.46-1.101,2.46-2.459C147.25,13.182,146.148,12.08,144.79,12.08z M137.201,8.892
	c-0.146,0-0.268,0.121-0.271,0.27l-0.11,5.542l0.11,2.012c0.003,0.146,0.124,0.268,0.271,0.268c0.149,0,0.271-0.121,0.272-0.27
	v0.002l0.119-2.012l-0.119-5.542C137.472,9.012,137.351,8.892,137.201,8.892z"/>
<rect x="150" fill="#5C65EB" width="24" height="24"/>
<path fill="#FFFFFF" d="M159.711,23c0.023,0-0.01-3.488,0-4.222c0.01-0.676-0.174-1.151-1.616-2.487
	c-0.384-0.563-1.157-1.865-1.058-2.792c0.069-0.651,0.871-1.535,1.092-2.198c-0.034-0.674-0.897-2.636-1.015-3.048
	c-0.344-1.213-0.999-3.905-1.008-4.092c0.048-1.56,1.349-1.302,1.604-0.651s0.59,1.901,0.897,3.005
	c0.232,0.831,0.801,1.845,1.11,2.515c0.17,0.368,0.343,0.273,0.483,0.027c0.189-0.332,0.436-0.909,1.203-0.909
	c0.748,0,1.002,0.826,1.033,1.147c0.03,0.321,0.415,0.259,0.484,0.015c0.069-0.243,0.29-0.979,1.047-0.918
	c0.811,0.065,0.909,0.657,1.027,1.141c0.131,0.539,0.459,0.001,0.459,0.001s0.31-0.606,0.57-1.243
	c0.262-0.636,0.42-1.697,0.881-3.113c0.498-1.527,1.649-0.837,1.596,0.192c-0.042,0.772-1.131,5.494-1.237,5.921
	c-0.106,0.426-0.559,3.654-0.733,4.343c-0.14,0.561-0.723,1.535-1.056,2.931L165.456,23H159.711z"/>
<rect x="75" fill="#E4836E" width="24" height="24"/>
<g>
	<g>
		<g>
			<path id="SVGID_2_" fill="#FFFFFF" d="M84.462,19.946L84.462,19.946c-1.902,0-3.276-1.204-3.276-2.65
				c0-1.418,1.705-2.598,3.606-2.577c0.443,0.005,0.857,0.076,1.233,0.198c1.032,0.718,1.772,1.124,1.981,1.941
				c0.039,0.166,0.061,0.337,0.061,0.511C88.067,18.816,87.135,19.946,84.462,19.946 M84.962,11.464L84.962,11.464
				c-1.277-0.038-2.49-1.428-2.711-3.104c-0.22-1.677,0.636-2.96,1.912-2.921c1.276,0.038,2.489,1.383,2.711,3.06
				C87.094,10.175,86.237,11.503,84.962,11.464z M87.608,13.947c-0.447-0.317-1.305-1.088-1.305-1.541
				c0-0.531,0.152-0.793,0.952-1.417c0.819-0.641,1.399-1.541,1.399-2.588c0-1.247-0.556-2.461-1.598-2.862h1.571l1.108-0.801
				c0,0-3.716,0-4.955,0c-2.221,0-4.312,1.683-4.312,3.632c0,1.992,1.514,3.601,3.773,3.601c0.157,0,0.31-0.003,0.46-0.014
				c-0.147,0.28-0.252,0.597-0.252,0.925c0,0.553,0.298,1.003,0.675,1.369c-0.284,0-0.56,0.008-0.858,0.008
				c-2.753,0-4.87,1.752-4.87,3.57c0,1.79,2.321,2.909,5.073,2.909c3.137,0,4.87-1.78,4.87-3.57
				C89.342,15.732,88.917,14.873,87.608,13.947z"/>
		</g>
	</g>
	<g>
		<g>
			<polygon id="SVGID_4_" fill="#FFFFFF" points="95.367,11.99 93.209,11.99 93.209,9.849 92.113,9.849 92.113,11.99 89.933,11.99 
				89.933,13.1 92.113,13.1 92.113,15.279 93.209,15.279 93.209,13.098 95.367,13.098 			"/>
		</g>
	</g>
</g>
<rect fill="#7183A9" width="24" height="24"/>
<path fill="#FFFFFF" d="M15.618,9.152H17V6.381h-2.388c-2.458,0-3.872,2.48-3.845,4.154v1.385H8v2.771h2.768V23h3.465v-8.31H17
	v-2.77h-2.768v-1.416C14.232,9.958,14.687,9.128,15.618,9.152z"/>
<g>
	<rect x="25" y="24" fill="#2AA9E0" width="24" height="24"/>
	<path fill="#FFFFFF" d="M45.338,31.501c-0.585,0.262-1.223,0.438-1.887,0.518c0.678-0.407,1.2-1.051,1.444-1.817
		c-0.633,0.375-1.336,0.649-2.082,0.797c-0.6-0.638-1.451-1.037-2.396-1.037c-1.813,0-3.283,1.47-3.283,3.282
		c0,0.257,0.029,0.506,0.087,0.747c-2.732-0.134-5.146-1.443-6.767-3.43c-0.282,0.487-0.444,1.05-0.444,1.652
		c0,1.138,0.584,2.143,1.461,2.732c-0.537-0.019-1.045-0.167-1.486-0.413c0,0.015,0,0.027,0,0.042c0,1.589,1.131,2.917,2.632,3.217
		c-0.271,0.076-0.565,0.114-0.863,0.114c-0.211,0-0.419-0.021-0.617-0.059c0.416,1.304,1.626,2.253,3.066,2.28
		c-1.123,0.881-2.541,1.406-4.076,1.406c-0.266,0-0.525-0.018-0.784-0.047c1.455,0.931,3.182,1.475,5.031,1.475
		c6.037,0,9.338-5.002,9.338-9.337c0-0.145-0.006-0.287-0.012-0.427C44.34,32.738,44.898,32.159,45.338,31.501z"/>
</g>
<rect x="100" y="24" fill="#16557B" width="24" height="24"/>
<g>
	<path fill="#DEE8F0" d="M106.798,29.332h10.404c0.989,0,1.798,0.809,1.798,1.796v10.407c0,0.988-0.809,1.797-1.798,1.797h-10.404
		c-0.989,0-1.798-0.809-1.798-1.797V31.128C105,30.14,105.809,29.332,106.798,29.332L106.798,29.332z M115.198,30.887
		c-0.347,0-0.631,0.284-0.631,0.63v1.509c0,0.346,0.284,0.629,0.631,0.629h1.582c0.348,0,0.63-0.283,0.63-0.629v-1.509
		c0-0.347-0.282-0.63-0.63-0.63H115.198L115.198,30.887z M117.419,35.252h-1.233c0.115,0.38,0.181,0.784,0.181,1.201
		c0,2.329-1.95,4.216-4.354,4.216c-2.401,0-4.352-1.887-4.352-4.216c0-0.417,0.064-0.821,0.18-1.201h-1.286v5.914
		c0,0.306,0.251,0.557,0.558,0.557h9.748c0.307,0,0.559-0.251,0.559-0.557L117.419,35.252L117.419,35.252z M112.013,33.577
		c-1.552,0-2.811,1.22-2.811,2.724c0,1.505,1.259,2.725,2.811,2.725c1.553,0,2.812-1.22,2.812-2.725
		C114.824,34.797,113.565,33.577,112.013,33.577z"/>
</g>
<g>
	<g>
		<rect x="50" y="24" fill="#BF171D" width="24" height="24"/>
	</g>
	<path id="Triangle_1_" fill="#BF171D" d="M60.346,38.529l4.323-2.189l-4.323-2.206V38.529z"/>
	<g id="Lozenge_1_">
		<g>
			<path fill="#FFFFFF" d="M69.84,33.373c0,0-0.156-1.078-0.636-1.552c-0.609-0.623-1.292-0.626-1.604-0.663
				C65.36,31,62.002,31,62.002,31h-0.006c0,0-3.358,0-5.599,0.158c-0.312,0.036-0.994,0.04-1.602,0.663
				c-0.481,0.474-0.638,1.552-0.638,1.552S54,34.639,54,35.904v1.188c0,1.266,0.158,2.531,0.158,2.531s0.156,1.076,0.638,1.551
				c0.607,0.623,1.406,0.604,1.763,0.669C57.84,41.963,62,42,62,42s3.36-0.006,5.601-0.162c0.312-0.038,0.994-0.041,1.604-0.664
				c0.479-0.475,0.636-1.551,0.636-1.551S70,38.357,70,37.092v-1.188C70,34.639,69.84,33.373,69.84,33.373z M60.348,38.529
				l-0.002-4.395l4.323,2.206L60.348,38.529z"/>
		</g>
	</g>
</g>
<g>
	<rect x="125" y="24" fill="#F84F0F" width="24" height="24"/>
	<path fill="#FFFFFF" d="M127.476,37.51c-0.04,0-0.073,0.031-0.079,0.078l-0.146,1.111l0.146,1.091
		c0.006,0.046,0.039,0.079,0.079,0.079c0.041,0,0.074-0.033,0.08-0.078l0,0V39.79c0,0,0,0,0,0.001l0.173-1.092l-0.173-1.111
		C127.551,37.541,127.517,37.51,127.476,37.51z M128.298,36.903c-0.006-0.048-0.041-0.081-0.081-0.081
		c-0.042,0-0.078,0.035-0.083,0.081l-0.198,1.796l0.198,1.756c0.005,0.047,0.041,0.082,0.083,0.082c0.04,0,0.075-0.034,0.081-0.082
		l0.226-1.756L128.298,36.903z M131.398,35.247c-0.081,0-0.148,0.065-0.153,0.149l-0.157,3.306l0.157,2.135
		c0.005,0.084,0.072,0.149,0.153,0.149c0.079,0,0.145-0.065,0.149-0.149l0,0l0.179-2.135l-0.179-3.306
		C131.543,35.312,131.478,35.247,131.398,35.247z M129.795,36.395c-0.063,0-0.113,0.049-0.118,0.115l-0.177,2.189l0.177,2.119
		c0.005,0.064,0.055,0.114,0.118,0.114c0.061,0,0.11-0.05,0.116-0.114l0.2-2.119l-0.2-2.19
		C129.905,36.444,129.855,36.395,129.795,36.395z M133.026,40.984c0.1,0,0.182-0.08,0.187-0.184l0.153-2.1l-0.153-4.399
		c-0.005-0.103-0.086-0.184-0.186-0.184c-0.102,0-0.183,0.081-0.186,0.184l-0.136,4.399l0.136,2.101
		C132.845,40.904,132.926,40.984,133.026,40.984z M136.361,40.995c0.139,0,0.254-0.114,0.255-0.253v0.002v-0.002l0.107-2.039
		l-0.107-5.082c-0.001-0.139-0.116-0.253-0.255-0.253c-0.137,0-0.251,0.113-0.253,0.253l-0.096,5.08
		c0,0.003,0.096,2.043,0.096,2.043C136.11,40.881,136.225,40.995,136.361,40.995z M134.682,40.987c0.119,0,0.216-0.097,0.22-0.22
		v0.002l0.132-2.067l-0.132-4.432c-0.004-0.122-0.101-0.218-0.22-0.218c-0.12,0-0.216,0.096-0.22,0.218l-0.115,4.432l0.116,2.067
		C134.466,40.891,134.563,40.987,134.682,40.987z M130.593,40.968c0.07,0,0.127-0.058,0.134-0.132l0.188-2.137l-0.188-2.032
		c-0.006-0.075-0.063-0.132-0.134-0.132s-0.13,0.058-0.135,0.133l-0.167,2.031l0.167,2.136
		C130.463,40.91,130.521,40.968,130.593,40.968z M129.001,40.851c0.053,0,0.095-0.041,0.101-0.098l0.212-2.054l-0.212-2.132
		c-0.006-0.057-0.048-0.098-0.101-0.098c-0.052,0-0.095,0.042-0.1,0.098l-0.188,2.132l0.188,2.053
		C128.906,40.809,128.948,40.851,129.001,40.851z M135.52,34.196c-0.131,0-0.234,0.104-0.237,0.236l-0.106,4.27l0.106,2.055
		c0.003,0.131,0.105,0.233,0.237,0.233c0.13,0,0.234-0.102,0.236-0.235v0.002l0.117-2.054l-0.117-4.271
		C135.754,34.3,135.649,34.196,135.52,34.196z M132.209,40.988c0.09,0,0.165-0.072,0.168-0.166l0.166-2.121l-0.166-4.061
		c-0.004-0.094-0.078-0.167-0.168-0.167s-0.164,0.073-0.168,0.167l-0.147,4.061l0.147,2.121
		C132.045,40.916,132.119,40.988,132.209,40.988z M134.054,40.789v-0.002l0.142-2.085l-0.142-4.549
		c-0.003-0.112-0.094-0.201-0.203-0.201s-0.199,0.088-0.203,0.201l-0.125,4.548l0.126,2.088c0.003,0.111,0.093,0.199,0.202,0.199
		S134.051,40.9,134.054,40.789L134.054,40.789z M144.79,36.08c-0.337,0-0.658,0.068-0.95,0.191
		c-0.196-2.217-2.056-3.956-4.324-3.956c-0.556,0-1.096,0.109-1.572,0.294c-0.187,0.071-0.234,0.146-0.237,0.289v7.807
		c0.003,0.151,0.12,0.276,0.265,0.292c0.007,0.001,6.774,0.003,6.819,0.003c1.357,0,2.46-1.101,2.46-2.459
		C147.25,37.182,146.148,36.08,144.79,36.08z M137.201,32.892c-0.146,0-0.268,0.121-0.271,0.27l-0.11,5.542l0.11,2.012
		c0.003,0.146,0.124,0.268,0.271,0.268c0.149,0,0.271-0.121,0.272-0.27v0.002l0.119-2.012l-0.119-5.542
		C137.472,33.012,137.351,32.892,137.201,32.892z"/>
</g>
<rect x="150" y="24" fill="#1724E2" width="24" height="24"/>
<path fill="#FFFFFF" d="M159.711,47c0.023,0-0.01-3.488,0-4.222c0.01-0.676-0.174-1.151-1.616-2.487
	c-0.384-0.563-1.157-1.865-1.058-2.792c0.069-0.651,0.871-1.535,1.092-2.198c-0.034-0.674-0.897-2.636-1.015-3.048
	c-0.344-1.213-0.999-3.905-1.008-4.092c0.048-1.56,1.349-1.302,1.604-0.651s0.59,1.901,0.897,3.005
	c0.232,0.831,0.801,1.845,1.11,2.515c0.17,0.368,0.343,0.273,0.483,0.027c0.189-0.332,0.436-0.909,1.203-0.909
	c0.748,0,1.002,0.826,1.033,1.147c0.03,0.321,0.415,0.259,0.484,0.015c0.069-0.243,0.29-0.979,1.047-0.918
	c0.811,0.065,0.909,0.657,1.027,1.141c0.131,0.539,0.459,0.001,0.459,0.001s0.31-0.606,0.57-1.243
	c0.262-0.636,0.42-1.697,0.881-3.113c0.498-1.527,1.649-0.837,1.596,0.192c-0.042,0.772-1.131,5.494-1.237,5.921
	c-0.106,0.426-0.559,3.654-0.733,4.343c-0.14,0.561-0.723,1.535-1.056,2.931L165.456,47H159.711z"/>
<g>
	<rect x="75" y="24" fill="#D94F31" width="24" height="24"/>
	<g>
		<g>
			<g>
				<path id="SVGID_3_" fill="#FFFFFF" d="M84.462,43.946L84.462,43.946c-1.902,0-3.276-1.204-3.276-2.65
					c0-1.418,1.705-2.598,3.606-2.577c0.443,0.005,0.857,0.076,1.233,0.198c1.032,0.718,1.772,1.124,1.981,1.941
					c0.039,0.166,0.061,0.337,0.061,0.511C88.067,42.816,87.135,43.946,84.462,43.946 M84.962,35.464L84.962,35.464
					c-1.277-0.038-2.49-1.428-2.711-3.104c-0.22-1.677,0.636-2.96,1.912-2.921c1.276,0.038,2.489,1.383,2.711,3.06
					C87.094,34.175,86.237,35.503,84.962,35.464z M87.608,37.947c-0.447-0.317-1.305-1.088-1.305-1.541
					c0-0.531,0.152-0.793,0.952-1.417c0.819-0.641,1.399-1.541,1.399-2.588c0-1.247-0.556-2.461-1.598-2.862h1.571l1.108-0.801
					c0,0-3.716,0-4.955,0c-2.221,0-4.312,1.683-4.312,3.632c0,1.992,1.514,3.601,3.773,3.601c0.157,0,0.31-0.003,0.46-0.014
					c-0.147,0.28-0.252,0.597-0.252,0.925c0,0.553,0.298,1.003,0.675,1.369c-0.284,0-0.56,0.008-0.858,0.008
					c-2.753,0-4.87,1.752-4.87,3.57c0,1.79,2.321,2.909,5.073,2.909c3.137,0,4.87-1.78,4.87-3.57
					C89.342,39.732,88.917,38.873,87.608,37.947z"/>
			</g>
		</g>
		<g>
			<g>
				<polygon id="SVGID_1_" fill="#FFFFFF" points="95.367,35.99 93.209,35.99 93.209,33.849 92.113,33.849 92.113,35.99 
					89.933,35.99 89.933,37.1 92.113,37.1 92.113,39.279 93.209,39.279 93.209,37.098 95.367,37.098 				"/>
			</g>
		</g>
	</g>
</g>
</svg>
